# xmcd CD database file
#
# Track frame offsets:
#	150
#	16274
#	35566
#	47058
#	61559
#	79659
#	91318
#	105304
#	121957
#	132661
#	145144
#
# Disc length: 2100 seconds
#
# Revision: 1
# Processed by: cddbd v1.5.2PL0 Copyright (c) Steve Scherf et al.
# Submitted via: CDex 1.70beta2
#
DISCID=8708320b
DTITLE=Amy Winehouse - Back To Black (Deluxe Edition) Disc 1
DYEAR=2007
DGENRE=Soul
TTITLE0=Rehab
TTITLE1=You Know I' m No Good
TTITLE2=Me and Mr Jones
TTITLE3=Just Friends
TTITLE4=Back To Black
TTITLE5=Love Is A Losing Game
TTITLE6=Tears Dry On Their Own
TTITLE7=Wake Up Alone
TTITLE8=Some Unholy War
TTITLE9=He Can Only Hold Her
TTITLE10=Addicted
EXTD=YEAR: 2007
EXTT0=
EXTT1=
EXTT2=
EXTT3=
EXTT4=
EXTT5=
EXTT6=
EXTT7=
EXTT8=
EXTT9=
EXTT10=
PLAYORDER=
